<svg width="32" height="32" viewBox="0 0 32 32" fill="none" xmlns="http://www.w3.org/2000/svg">
<rect width="32" height="32" rx="2" fill="#FDEC4F"/>
<path fill-rule="evenodd" clip-rule="evenodd" d="M12.8272 12.1704C13.146 10.804 14.4298 9.75 16 9.75C17.8231 9.75 19.25 11.1633 19.25 12.8449C19.25 14.1341 18.4171 15.2604 17.2019 15.7214C16.2925 16.0664 15.25 16.9106 15.25 18.1898V19.5C15.25 19.9142 15.5857 20.25 16 20.25C16.4142 20.25 16.75 19.9142 16.75 19.5V18.1898C16.75 17.8123 17.0942 17.3666 17.734 17.1239C19.4845 16.4597 20.75 14.8064 20.75 12.8449C20.75 10.2795 18.5951 8.25 16 8.25C13.7558 8.25 11.8488 9.76194 11.3665 11.8296C11.2724 12.233 11.5231 12.6363 11.9265 12.7304C12.3298 12.8245 12.7331 12.5738 12.8272 12.1704ZM16 24C16.5522 24 17 23.5523 17 23C17 22.4477 16.5522 22 16 22C15.4477 22 15 22.4477 15 23C15 23.5523 15.4477 24 16 24Z" fill="#322F08"/>
<path fill-rule="evenodd" clip-rule="evenodd" d="M16 9.85C14.4747 9.85 13.2325 10.8735 12.9247 12.1931C12.818 12.6503 12.361 12.9344 11.9038 12.8278C11.4466 12.7211 11.1625 12.2641 11.2691 11.8069C11.7624 9.69247 13.711 8.15 16 8.15C18.6466 8.15 20.85 10.2206 20.85 12.8449C20.85 14.8513 19.5557 16.5397 17.7695 17.2174C17.1477 17.4533 16.85 17.8724 16.85 18.1898V19.5C16.85 19.9694 16.4694 20.35 16 20.35C15.5306 20.35 15.15 19.9694 15.15 19.5V18.1898C15.15 16.8504 16.2391 15.9798 17.1664 15.628C18.346 15.1804 19.15 14.0893 19.15 12.8449C19.15 11.2222 17.7717 9.85 16 9.85Z" fill="#322F08"/>
</svg>
